<svg height="512" viewBox="0 0 128 128" width="512" xmlns="http://www.w3.org/2000/svg"><g id="Circle_Grid" data-name="Circle Grid"><circle cx="64" cy="64" fill="#f6c863" r="64"/></g><g id="icon"><path d="m89.56 62.81 10.4-10.4a17.232 17.232 0 0 0 -24.37-24.37l-10.4 10.4a17.232 17.232 0 0 0 24.37 24.37zm-7.879-29.25a9.022 9.022 0 0 1 12.759 12.759l-10.969 10.969a9.022 9.022 0 0 1 -12.759-12.759z" fill="#62667c"/><path d="m52.408 99.962 10.4-10.4a17.232 17.232 0 0 0 -24.368-24.372l-10.4 10.4a17.232 17.232 0 0 0 24.37 24.37zm-7.879-29.25a9.022 9.022 0 0 1 12.759 12.759l-10.969 10.969a9.022 9.022 0 0 1 -12.759-12.759z" fill="#62667c"/><path d="m56.39 77.318 20.928-20.928a4.036 4.036 0 0 0 -5.708-5.708l-20.928 20.928a4.036 4.036 0 0 0 5.708 5.708z" fill="#525666"/></g></svg>